<svg xmlns="http://www.w3.org/2000/svg" xmlns:xlink="http://www.w3.org/1999/xlink" width="2125" height="2979" viewBox="0 0 2125 2979">
  <defs>
    <clipPath id="clip-path">
      <rect id="Rectangle_6" data-name="Rectangle 6" width="2125" height="2979" fill="#fff"/>
    </clipPath>
  </defs>
  <g id="XMLID_244_" clip-path="url(#clip-path)">
    <path id="XMLID_2_" d="M-68.34,1249.253s258.069-53.4,516.2,160.068C713.428,1628.985,329.3,986.275,866.37,1135.729S1696.4,982.32,1501.14,647.813c-195.329-334.507,502.182-718.788,669.6-697.494" transform="translate(-302.473 -282.938)" fill="none" stroke="#a08a8a" stroke-miterlimit="10" stroke-width="0.45"/>
    <path id="Path_37" data-name="Path 37" d="M-69.35,1242.554s271.961-60.718,533.843,154.266c271.445,222.565-100.6-392.324,432.011-258.627,531.581,135.345,795.337-158.486,600.008-492.993C1301.248,310.694,1991.457-74.378,2158.873-53.019" transform="translate(-307.989 -301.62)" fill="none" stroke="#a08a8a" stroke-miterlimit="10" stroke-width="0.45"/>
    <path id="Path_38" data-name="Path 38" d="M-70.36,1235.906s285.854-68.035,551.547,148.531c277.324,225.4-82.254-363.383,445.515-243.727,526.477,119.391,760.639-163.562,565.31-498.069s487.644-720.37,655.06-699.01" transform="translate(-313.505 -320.354)" fill="none" stroke="#a08a8a" stroke-miterlimit="10" stroke-width="0.45"/>
    <path id="Path_39" data-name="Path 39" d="M-71.37,1229.259s299.746-75.353,569.252,142.729c283.2,228.3-64.1-333.584,458.955-228.762,521.114,104.427,725.877-168.638,530.612-503.145-195.329-334.507,480.342-721.162,647.758-699.8" transform="translate(-319.021 -339.087)" fill="none" stroke="#a08a8a" stroke-miterlimit="10" stroke-width="0.45"/>
    <path id="Path_40" data-name="Path 40" d="M-72.38,1222.611s313.573-82.671,586.891,136.928c289.084,231.135-46.07-303.72,472.459-213.863,515.687,89.4,691.179-173.714,495.85-508.221C1287.556,303.079,1955.926-84.433,2123.342-63.073" transform="translate(-324.537 -357.821)" fill="none" stroke="#a08a8a" stroke-miterlimit="10" stroke-width="0.45"/>
    <path id="Path_41" data-name="Path 41" d="M-73.39,1215.963s327.465-89.989,604.6,131.192c294.964,234.036-28.043-273.855,485.964-198.9,510.194,74.43,656.481-178.791,461.152-513.3s465.8-722.744,633.22-701.384" transform="translate(-330.053 -376.555)" fill="none" stroke="#a08a8a" stroke-miterlimit="10" stroke-width="0.45"/>
    <path id="Path_42" data-name="Path 42" d="M-74.4,1209.259s341.357-97.306,622.3,125.391c300.844,236.871-10.08-243.991,499.4-183.933,504.7,59.465,621.719-183.867,426.454-518.308C1278.429,297.9,1932.261-91.125,2099.676-69.766" transform="translate(-335.569 -395.233)" fill="none" stroke="#a08a8a" stroke-miterlimit="10" stroke-width="0.45"/>
    <path id="Path_43" data-name="Path 43" d="M-75.41,1202.612s355.249-104.624,640,119.655c306.724,239.772,7.754-214.127,512.908-169.033,499.145,44.566,587.021-188.877,391.692-523.385S1920.4-94.477,2087.811-73.117" transform="translate(-341.085 -413.966)" fill="none" stroke="#a08a8a" stroke-miterlimit="10" stroke-width="0.45"/>
    <path id="Path_44" data-name="Path 44" d="M-76.42,1196.02s369.141-111.942,657.644,113.854c312.6,242.607,25.652-184.2,526.413-154.068,493.524,29.667,552.323-193.953,356.994-528.461S1908.595-97.838,2076.01-76.478" transform="translate(-346.601 -432.756)" fill="none" stroke="#a08a8a" stroke-miterlimit="10" stroke-width="0.45"/>
    <path id="Path_45" data-name="Path 45" d="M-77.43,1189.368s382.516-118.6,675.348,108.052c317.967,246.167,43.421-154.2,539.917-139.169,487.838,14.833,517.56-199.03,322.231-533.537C1264.737,290.273,1896.73-101.128,2064.145-79.834" transform="translate(-352.117 -451.486)" fill="none" stroke="#a08a8a" stroke-miterlimit="10" stroke-width="0.45"/>
    <path id="Path_46" data-name="Path 46" d="M-78.44,1182.679S317.969,1056.761,614.613,1285c323.782,249.068,61.125-124.2,553.357-124.2,482.087,0,482.862-204.106,287.533-538.613s429.362-726.7,596.777-705.339" transform="translate(-357.634 -470.112)" fill="none" stroke="#a08a8a" stroke-miterlimit="10" stroke-width="0.45"/>
    <path id="Path_47" data-name="Path 47" d="M-79.45,1176.087s410.236-133.17,710.692,96.515c329.662,251.968,78.829-94.142,566.861-109.3,476.336-14.767,448.1-209.182,252.836-543.689C1255.61,285.1,1873-107.882,2040.415-86.522" transform="translate(-363.15 -488.901)" fill="none" stroke="#a08a8a" stroke-miterlimit="10" stroke-width="0.45"/>
    <path id="Path_48" data-name="Path 48" d="M-80.46,1169.439s424.128-140.422,728.4,90.714c335.542,254.869,96.469-64.08,580.365-94.34,470.521-29.469,413.4-214.259,218.073-548.766S1861.2-111.234,2028.614-89.874" transform="translate(-368.666 -507.635)" fill="none" stroke="#a08a8a" stroke-miterlimit="10" stroke-width="0.45"/>
    <path id="Path_49" data-name="Path 49" d="M-81.47,1162.736s437.956-147.74,746.1,84.978c341.357,257.77,114.109-33.886,593.8-79.44,464.706-44.1,378.7-219.335,183.375-553.776C1246.482,279.99,1849.333-114.575,2016.749-93.215" transform="translate(-374.182 -526.313)" fill="none" stroke="#a08a8a" stroke-miterlimit="10" stroke-width="0.45"/>
    <path id="Path_50" data-name="Path 50" d="M-82.48,1156.088s451.848-154.992,763.741,79.177c347.237,260.67,131.684-3.692,607.309-64.475,458.826-58.674,343.942-224.345,148.677-558.852-195.329-334.507,400.221-729.864,567.636-708.5" transform="translate(-379.698 -545.047)" fill="none" stroke="#a08a8a" stroke-miterlimit="10" stroke-width="0.45"/>
    <path id="Path_51" data-name="Path 51" d="M-83.49,1149.441s465.675-162.309,781.445,73.375c353.117,263.571,149.194,26.634,620.814-49.51,452.946-73.112,309.244-229.422,113.915-563.929S1825.6-121.278,1993.019-99.918" transform="translate(-385.214 -563.781)" fill="none" stroke="#a08a8a" stroke-miterlimit="10" stroke-width="0.45"/>
    <path id="Path_52" data-name="Path 52" d="M-84.5,1142.849s479.567-169.627,799.149,67.64c359,266.472,166.769,56.96,634.318-34.611,447-87.549,274.546-234.5,79.217-569.005S1813.8-124.639,1981.218-103.279" transform="translate(-390.73 -582.57)" fill="none" stroke="#a08a8a" stroke-miterlimit="10" stroke-width="0.45"/>
    <path id="Path_53" data-name="Path 53" d="M-85.51,1136.146S407.949,959.2,731.344,1197.984c364.877,269.372,184.28,87.417,647.758-19.646,441.057-101.921,239.784-239.574,44.519-574.081S1802-127.98,1969.417-106.62" transform="translate(-396.246 -601.248)" fill="none" stroke="#a08a8a" stroke-miterlimit="10" stroke-width="0.45"/>
    <path id="Path_54" data-name="Path 54" d="M-86.52,1129.554s507.287-184.2,834.493,56.037c370.692,272.207,201.726,117.941,661.263-4.747,435.112-116.161,205.086-244.65,9.757-579.158s371.08-733.028,538.5-711.668" transform="translate(-401.762 -620.038)" fill="none" stroke="#a08a8a" stroke-miterlimit="10" stroke-width="0.45"/>
    <path id="Path_55" data-name="Path 55" d="M-87.53,1122.85s521.179-191.514,852.2,50.3c376.572,275.108,219.236,148.531,674.767,10.219,429.168-130.335,170.323-249.727-24.941-584.234s363.778-733.819,531.194-712.459" transform="translate(-407.278 -638.716)" fill="none" stroke="#a08a8a" stroke-miterlimit="10" stroke-width="0.45"/>
    <path id="Path_56" data-name="Path 56" d="M-88.54,1116.2s535.071-198.832,869.9,44.5c382.452,278.009,236.747,179.252,688.206,25.118,423.288-144.443,135.625-254.8-59.7-589.244s356.542-734.61,523.957-713.25" transform="translate(-412.794 -657.45)" fill="none" stroke="#a08a8a" stroke-miterlimit="10" stroke-width="0.45"/>
    <path id="Path_57" data-name="Path 57" d="M-89.55,1109.555s548.963-206.15,887.542,38.7c388.332,280.844,254.257,210.039,701.711,40.083,417.344-158.486,100.927-259.813-94.4-594.321s349.24-735.4,516.656-714.042" transform="translate(-418.31 -676.183)" fill="none" stroke="#a08a8a" stroke-miterlimit="10" stroke-width="0.45"/>
    <path id="Path_58" data-name="Path 58" d="M-90.56,1102.852s562.855-213.467,905.246,32.963c394.276,283.678,271.832,240.827,715.215,55.048,411.464-172.462,66.165-264.89-129.1-599.4s341.939-736.193,509.354-714.833" transform="translate(-423.826 -694.861)" fill="none" stroke="#a08a8a" stroke-miterlimit="10" stroke-width="0.45"/>
    <path id="Path_59" data-name="Path 59" d="M-91.57,1096.26s576.747-220.785,922.95,27.161c400.156,286.579,289.407,271.746,728.72,69.947C1965.683,1007,1591.567,923.4,1396.238,588.9s334.637-736.984,502.053-715.624" transform="translate(-429.342 -713.651)" fill="none" stroke="#a08a8a" stroke-miterlimit="10" stroke-width="0.45"/>
    <path id="Path_60" data-name="Path 60" d="M-92.58,1089.612s590.639-228.1,940.654,21.36c406.036,289.414,307.047,302.8,742.159,84.912C1990,995.734,1587,920.842,1391.674,586.335s327.4-737.775,494.816-716.415" transform="translate(-434.858 -732.385)" fill="none" stroke="#a08a8a" stroke-miterlimit="10" stroke-width="0.45"/>
    <path id="Path_61" data-name="Path 61" d="M-93.59,1082.965S510.941,847.544,864.7,1098.589c411.916,292.249,324.687,333.848,755.664,99.812,394.018-213.929-37.993-280.119-233.257-614.626s320.1-738.566,487.515-717.206" transform="translate(-440.374 -751.119)" fill="none" stroke="#a08a8a" stroke-miterlimit="10" stroke-width="0.45"/>
    <path id="Path_62" data-name="Path 62" d="M-94.6,1076.317s618.423-242.738,976,9.823c417.8,295.15,342.391,364.965,769.168,114.777,388.267-227.642-72.691-285.195-268.02-619.7s312.8-739.357,480.213-718" transform="translate(-445.89 -769.852)" fill="none" stroke="#a08a8a" stroke-miterlimit="10" stroke-width="0.45"/>
    <path id="Path_63" data-name="Path 63" d="M-95.61,1069.68s632.315-250.122,993.7,4.021c423.676,297.984,360.224,396.148,782.608,129.676,382.581-241.288-107.389-290.271-302.718-624.712s305.5-740.148,472.912-718.788" transform="translate(-451.406 -788.53)" fill="none" stroke="#a08a8a" stroke-miterlimit="10" stroke-width="0.45"/>
    <path id="Path_64" data-name="Path 64" d="M-96.62,1062.976s646.66-258.165,1011.342-1.714c430.2,299.962,378.058,427.4,796.112,144.641,376.96-254.935-142.151-295.281-337.48-629.789s298.259-740.939,465.675-719.579" transform="translate(-456.922 -807.208)" fill="none" stroke="#a08a8a" stroke-miterlimit="10" stroke-width="0.45"/>
    <path id="Path_65" data-name="Path 65" d="M-97.63,1056.385S562.922,790.9,931.417,1048.869c436.082,302.863,395.956,458.645,809.617,159.54,371.4-268.515-176.849-300.358-372.178-634.865s290.958-741.73,458.374-720.37" transform="translate(-462.438 -825.998)" fill="none" stroke="#a08a8a" stroke-miterlimit="10" stroke-width="0.45"/>
    <path id="Path_66" data-name="Path 66" d="M-98.64,1049.737S575.8,776.936,948.111,1036.42c441.962,305.7,413.919,489.96,823.121,174.505,365.846-282.03-211.612-305.434-406.941-639.941s283.657-742.522,451.072-721.162" transform="translate(-467.954 -844.732)" fill="none" stroke="#a08a8a" stroke-miterlimit="10" stroke-width="0.45"/>
    <path id="Path_67" data-name="Path 67" d="M-99.65,1043.034s688.336-280.118,1064.455-19.053c447.841,308.6,431.946,521.275,836.561,189.471,360.418-295.545-246.31-310.51-441.638-645.017S1636.083-174.878,1803.5-153.518" transform="translate(-473.47 -863.41)" fill="none" stroke="#a08a8a" stroke-miterlimit="10" stroke-width="0.45"/>
    <path id="Path_68" data-name="Path 68" d="M-100.66,1036.442s702.163-287.37,1082.1-24.854c453.721,311.433,450.038,552.656,850.065,204.37,354.991-309.06-281.007-315.586-476.336-650.094C1159.9,231.357,1624.282-178.24,1791.7-156.88" transform="translate(-478.986 -882.2)" fill="none" stroke="#a08a8a" stroke-miterlimit="10" stroke-width="0.45"/>
    <path id="Path_69" data-name="Path 69" d="M-101.67,1029.794s716.055-294.688,1099.8-30.655c459.6,314.334,468.195,584.036,863.57,219.335,349.692-322.575-315.77-320.663-511.034-655.17C1155.336,228.8,1612.482-181.591,1779.9-160.231" transform="translate(-484.502 -900.934)" fill="none" stroke="#a08a8a" stroke-miterlimit="10" stroke-width="0.45"/>
    <path id="Path_70" data-name="Path 70" d="M-102.67,1023.091s729.947-302.006,1117.5-36.391c465.481,317.169,486.416,615.417,877.009,234.234,344.394-336.089-350.468-325.739-545.8-660.18-195.329-334.507,254.515-745.686,421.931-724.326" transform="translate(-489.964 -919.611)" fill="none" stroke="#a08a8a" stroke-miterlimit="10" stroke-width="0.45"/>
    <path id="Path_71" data-name="Path 71" d="M-103.68,1016.443s743.84-309.323,1135.143-42.193c471.361,320.07,504.767,646.8,890.514,249.2,339.161-349.6-385.166-330.815-580.495-665.257-195.329-334.507,247.214-746.477,414.63-725.117" transform="translate(-495.48 -938.346)" fill="none" stroke="#a08a8a" stroke-miterlimit="10" stroke-width="0.45"/>
    <path id="Path_72" data-name="Path 72" d="M-104.69,1009.852S653.041,693.21,1048.158,961.858c477.241,322.9,523.117,678.244,904.018,264.1,333.991-363.053-419.928-335.826-615.257-670.333S1576.9-191.645,1744.247-170.285" transform="translate(-500.996 -957.135)" fill="none" stroke="#a08a8a" stroke-miterlimit="10" stroke-width="0.45"/>
    <path id="Path_73" data-name="Path 73" d="M-105.7,1003.148s771.559-323.959,1170.552-53.729c483.121,325.8,541.532,709.624,917.522,279.064,328.886-376.568-454.626-340.9-649.955-675.409s232.676-748.059,400.092-726.7" transform="translate(-506.512 -975.813)" fill="none" stroke="#a08a8a" stroke-miterlimit="10" stroke-width="0.45"/>
    <path id="Path_74" data-name="Path 74" d="M-106.71,996.5S678.741,665.224,1081.482,936.97c489,328.64,560.012,741.005,930.962,293.963C2336.226,840.85,1523.12,885.02,1327.791,550.513s225.375-748.85,392.79-727.49" transform="translate(-512.028 -994.547)" fill="none" stroke="#a08a8a" stroke-miterlimit="10" stroke-width="0.45"/>
    <path id="Path_75" data-name="Path 75" d="M-107.72,989.853s799.343-338.594,1205.9-65.332c494.881,331.541,578.492,772.386,944.467,308.928,318.742-403.663-524.086-351.054-719.415-685.562C1127.9,213.446,1541.3-201.688,1708.716-180.328" transform="translate(-517.544 -1013.281)" fill="none" stroke="#a08a8a" stroke-miterlimit="10" stroke-width="0.45"/>
    <path id="Path_76" data-name="Path 76" d="M-108.73,983.206s813.235-345.912,1223.6-71.068c500.76,334.375,597.1,803.7,957.971,323.893,313.767-417.178-558.784-356.131-754.113-690.638s210.837-750.432,378.187-729.073" transform="translate(-523.06 -1032.015)" fill="none" stroke="#a08a8a" stroke-miterlimit="10" stroke-width="0.45"/>
    <path id="Path_77" data-name="Path 77" d="M-109.74,976.614s827.127-353.23,1241.3-76.869c506.576,337.276,615.709,835.081,971.411,338.792,308.792-430.759-593.547-361.207-788.811-695.714C1118.836,208.316,1517.7-208.4,1685.115-187.041" transform="translate(-528.576 -1050.805)" fill="none" stroke="#a08a8a" stroke-miterlimit="10" stroke-width="0.45"/>
    <path id="Path_78" data-name="Path 78" d="M-110.75,969.911S730.2,609.363,1148.194,887.24c512.456,340.111,634.383,866.4,984.915,353.758,303.881-444.405-628.245-366.283-823.573-700.725-195.329-334.507,196.233-752.015,363.649-730.655" transform="translate(-534.092 -1069.483)" fill="none" stroke="#a08a8a" stroke-miterlimit="10" stroke-width="0.45"/>
    <path id="Path_79" data-name="Path 79" d="M-111.76,963.273s854.847-367.8,1276.648-88.406c518.336,343.011,653.057,897.645,998.42,368.657,298.97-457.986-662.942-371.294-858.271-705.8s188.932-752.806,356.348-731.446" transform="translate(-539.608 -1088.161)" fill="none" stroke="#a08a8a" stroke-miterlimit="10" stroke-width="0.45"/>
    <path id="Path_80" data-name="Path 80" d="M-112.77,956.626s868.739-375.117,1294.353-94.208c524.215,345.846,672.57,929.487,1011.86,383.622,294.835-471.171-697.705-376.37-892.969-710.877-195.329-334.507,181.7-753.6,349.046-732.237" transform="translate(-545.124 -1106.895)" fill="none" stroke="#a08a8a" stroke-miterlimit="10" stroke-width="0.45"/>
    <path id="XMLID_1_" d="M-113.78,950.034S768.851,567.6,1198.213,850.025c530.1,348.747,690.533,960.208,1025.364,398.521,289.278-485.279-732.4-381.446-927.732-715.954S1470.239-221.8,1637.654-200.436" transform="translate(-550.64 -1125.685)" fill="none" stroke="#a08a8a" stroke-miterlimit="10" stroke-width="0.45"/>
  </g>
</svg>
